<?xml version="1.0" encoding="utf-8"?>
<!-- Generator: Adobe Illustrator 22.0.1, SVG Export Plug-In . SVG Version: 6.00 Build 0)  -->
<svg version="1.1" xmlns="http://www.w3.org/2000/svg" xmlns:xlink="http://www.w3.org/1999/xlink" x="0px" y="0px"
	 viewBox="0 0 209.7 29.6" style="enable-background:new 0 0 209.7 29.6;" xml:space="preserve">
<style type="text/css">
	.st0{fill:#00AEEF;}
	.st1{fill:#429B48;}
	.st2{fill:#FFF200;}
	.st3{fill:#3DB54A;}
	.st4{fill-rule:evenodd;clip-rule:evenodd;fill:#3DB54A;}
	.st5{fill:#8DC63F;}
	.st6{fill:#D7DF23;}
	.st7{fill:#FBB040;}
	.st8{fill:#F7941D;}
	.st9{fill:#EE2A7B;}
</style>
<g id="_x38_N">
	<path class="st0" d="M205.4,3.9h4.3V23v5.2L185.5,9.1V3.9l19.9,15.6V3.9z"/>
</g>
<g id="_x37_O">
	<g>
		<path class="st1" d="M178.6,13.6c0,0.2-0.1,0.4-0.1,0.7c0,0.5,0.1,1.1,0,1.6c-0.4,5-4.9,8.8-9.9,8.3c-5-0.4-8.8-4.9-8.3-9.9
			c0.3-3.8,3-6.9,6.5-8c1.1-0.3-3.3-1-5.4,0.6c-2.4,1.8-4,4.5-4.3,7.7c-0.5,6,3.9,11.3,9.9,11.8c6,0.5,11.3-3.9,11.8-9.9
			C178.8,15.5,178.8,14.5,178.6,13.6"/>
		<path class="st2" d="M177.4,10.2l-0.4-0.1c2,3.7,0.8,8.4-2.9,10.6c-3.7,2.3-8.5,1.1-10.7-2.6c-2.2-3.7-1-8.4,2.6-10.7l-1.3-0.3
			c-4.4,2.7-5.9,8.5-3.3,12.9c2.6,4.4,8.3,5.8,12.7,3.1C178.5,20.4,180,14.7,177.4,10.2"/>
		<path class="st3" d="M176.3,5.9c-0.1-0.2-0.2-0.3-0.3-0.5c-0.2-0.5-0.8-0.9-1-1.4c-0.3-0.9-0.9-1.5-1.8-1.7
			c-0.2-0.1-0.5-0.2-0.6-0.3c-0.7-0.8-1.6-1.3-2.5-1.7c-1.3-0.6-1.7-0.3-1.5,1.1c0,0.5,0.2,1-0.1,1.4c-0.2,1.1-0.7,1.9-0.3,2.7
			c0.2,0.4,0.4,1.4,0.4,1.8c-0.8-0.3-1.4-2.1-2.9-1.9c-2.1,0.3-3.9,0.7-5.4,2.1c-1.5,1.4-2.3,3.2-2.3,5.3c0,2.2,0.7,4,2.2,5.5
			c0.1,0.1,0.2,0.2,0.3,0.3c0,0,0-0.1,0.1-0.1c-0.2-0.5-0.2-1-0.3-1.6c0-0.3,0-0.5,0-0.8c0,0,0-0.1,0-0.1c0,0,0,0,0,0
			c0-0.7,0.2-1.4,0.4-2.1c0.1-0.3,0.2-0.7,0.4-1c0.3-0.8,0.8-1.6,1.7-2.2c0.7-0.5,0.7-0.5,1.2-0.8c2.1-1.2,4.2-1.1,6.2,0.2
			c0.2,0.1,0.3,0.1,0.4,0c0.3-0.3,0.7-0.5,0.8-0.9c-0.8-0.7-1.8-1.1-2.8-1.4c0.6-0.1,1.1,0.1,1.6,0.3c1.8,0.8,3.6,0.7,5.3,0.1
			C176.7,7.9,177,7.1,176.3,5.9"/>
		<path class="st4" d="M179.5,9.3c1.1,2.2,1.6,4.8,1.3,7.5c-0.9,7.2-7.4,12.3-14.6,11.4c-7.2-0.9-12.3-7.4-11.4-14.6
			c0.1-0.5,0.2-1,0.3-1.5c0.1-0.5,0.2-1.1,0.4-1.6c0.6-1.5,1.6-2.8,2.7-4c0.4-0.4,0.8-0.7,1.2-1c1.8-1.6,3.8-2.5,6.5-2.9
			c0.7-0.1,2-0.4,2.4,0.2c-0.1-0.3-0.5-0.8-1.2-0.7c-0.5,0-1,0-1.5,0.1c-3.9,0.3-7,2-9.5,4.9c-2.5,2.9-3.5,6.3-3.2,10
			c0.3,3.9,1.9,7,4.9,9.5c2.9,2.4,6.3,3.4,10.2,3.1c0.5,0,1.1-0.1,1.6-0.2c2.7-0.4,5.1-1.7,7.2-3.7c2.8-2.6,4.3-5.8,4.4-9.5
			C181.2,13.7,180.6,11.4,179.5,9.3z"/>
	</g>
</g>
<g id="_x36_E">
	<path class="st5" d="M148.7,7.9h-3h-18.7l-2.5-4.3h24.3V7.9z M148.7,28h-19.5l2.4-4.3h14h3V28z M131.7,13.8h14.8h2.2v4.3h-2.2
		h-14.8V13.8z"/>
</g>
<g id="_x35_L">
	<path class="st6" d="M119.5,23.9L122,28h-17.1V15.9V3.7h4.3v20.2H119.5z"/>
</g>
<g id="_x34_A">
	<path class="st2" d="M102,28.2h-4.9l-7.3-14.5l-6.1,12.2l-6.1,2.3L89.8,3.9L102,28.2z"/>
</g>
<g id="_x33_M">
	<path class="st7" d="M54.6,17.1l-4.3-6.2V3.7l12.1,17.1L74.7,3.7V11v17h-4.2V17.1L62.4,28L54.6,17.1z"/>
</g>
<g id="_x32_A">
	<path class="st8" d="M47.7,28h-4.9l-7.3-14.5l-6.1,12.2L23.4,28L35.5,3.7L47.7,28z"/>
</g>
<g id="_x31_C">
	<path class="st9" d="M19.8,6.4l-2.2,3.9c-1.5-1.6-3.4-2.3-5.5-2.3c-2.1,0-4,0.8-5.5,2.3c-1.5,1.6-2.3,3.4-2.3,5.6
		c0,2.2,0.8,4.1,2.3,5.6c1.5,1.5,3.3,2.3,5.5,2.3c1.9,0,3.6-0.7,5.2-2l3.8,2.2c-2.3,2.7-5.4,4-9,4c-3.4,0-6.2-1.2-8.5-3.5
		C1.2,22.1,0,19.2,0,15.8c0-3.4,1.2-6.2,3.5-8.6c2.4-2.4,5.2-3.5,8.5-3.5C14.9,3.7,17.5,4.6,19.8,6.4z"/>
</g>
</svg>
