<?xml version="1.0" encoding="utf-8"?>
<!-- Generator: Adobe Illustrator 22.0.1, SVG Export Plug-In . SVG Version: 6.00 Build 0)  -->
<svg version="1.1" xmlns="http://www.w3.org/2000/svg" xmlns:xlink="http://www.w3.org/1999/xlink" x="0px" y="0px"
	 viewBox="0 0 97.8 102.4" style="enable-background:new 0 0 97.8 102.4;" xml:space="preserve">
<style type="text/css">
	.st0{fill:#429B48;}
	.st1{fill:#FFF200;}
	.st2{fill:#3DB54A;}
	.st3{fill-rule:evenodd;clip-rule:evenodd;fill:#3DB54A;}
</style>
<g id="Capa_1">
</g>
<g id="Capa_2">
	<g>
		<path class="st0" d="M88.9,46.8c-0.1,0.8-0.3,1.5-0.5,2.3c0.2,1.8,0.2,3.6,0,5.5C86.9,72,71.6,84.8,54.2,83.3
			C36.8,81.7,24,66.4,25.6,49c1.2-13.2,10.4-23.8,22.4-27.4c3.7-1.1-11.3-3.5-18.4,1.9c-8.2,6.2-13.8,15.6-14.8,26.6
			c-1.8,20.6,13.4,38.8,34,40.6c20.6,1.8,38.8-13.4,40.6-34C89.7,53.4,89.5,50,88.9,46.8"/>
		<path class="st1" d="M84.7,35.4L83.3,35c7,12.7,2.7,29-9.9,36.6c-12.8,7.8-29.4,3.8-36.9-9c-7.4-12.6-3.5-28.9,8.8-36.9l-4.5-1.1
			C25.6,33.9,20.5,53.8,29.5,69c9,15.2,28.6,20,43.8,10.7C88.6,70.4,93.7,50.6,84.7,35.4"/>
		<path class="st2" d="M81,20.6c-0.3-0.6-0.9-1-1.1-1.6c-0.8-1.9-2.8-2.9-3.5-4.9c-1.1-3-3-5.2-6.2-5.9C69.4,8,68.6,7.6,68.1,7
			c-2.3-2.8-5.4-4.3-8.6-5.8C55-0.9,53.7,0.1,54.2,5c0.2,1.6,0.6,3.3-0.4,4.9c-0.6,3.7-2.3,6.6-1,9.3c0.6,1.3,1.5,4.8,1.5,6.2
			c-2.8-1.1-4.8-7.1-10-6.4c-7.1,0.9-13.3,2.4-18.6,7.4c-5.3,5-8,11.1-8.1,18.3c-0.1,7.4,2.4,13.7,7.6,18.8c0.4,0.4,0.8,0.7,1.2,1.1
			c0.1-0.1,0.2-0.2,0.3-0.4c-0.6-1.8-0.8-3.6-0.9-5.5c-0.1-0.9-0.1-1.7-0.1-2.6c0-0.2,0-0.3,0-0.5c0-0.1,0-0.1,0-0.2
			c0.1-2.4,0.5-4.8,1.3-7.1c0.3-1.2,0.8-2.4,1.2-3.5c1.1-2.7,2.9-5.5,5.7-7.5c2.5-1.8,2.5-1.8,4.2-2.8c7.3-4,14.4-3.7,21.4,0.6
			c0.7,0.4,1.2,0.3,1.5-0.1c0.9-1,2.3-1.6,2.8-2.9c-2.9-2.3-6.2-3.7-9.6-5c2-0.4,3.8,0.4,5.4,1.1c6.1,2.8,12.2,2.3,18.4,0.5
			C82.4,27.4,83.3,24.4,81,20.6"/>
		<path class="st3" d="M91.9,32c3.8,7.7,5.5,16.5,4.4,25.6c-3,24.7-25.5,42.2-50.2,39.2C21.5,93.8,4,71.4,7,46.7
			c0.2-1.8,0.5-3.5,1-5.2c0.3-1.9,0.8-3.7,1.3-5.4c2.2-5,5.3-9.7,9.5-13.7c1.3-1.3,2.6-2.4,4-3.5c6.1-5.5,13-8.6,22.5-10
			c2.3-0.3,7-1.3,8.3,0.6c-0.4-1.1-1.9-2.7-4.2-2.3c-1.7,0-3.5,0-5.2,0.2C30.8,8.4,19.9,14,11.5,24.2C3,34.3-0.7,45.8,0.4,58.6
			C1.5,72,7.1,82.8,17.1,91.2c10,8.3,21.7,11.9,35,10.7c1.9-0.2,3.7-0.4,5.5-0.8c9.2-1.5,17.5-5.7,24.9-12.6
			c9.7-9.1,14.8-20,15.2-32.9C97.8,47.1,95.9,39.3,91.9,32z"/>
	</g>
</g>
</svg>
